PathFileType	4	(X/Y/Z)	Walk6.trc
DataRate	CameraRate	NumFrames	NumMarkers	Units	OrigDataRate	OrigDataStartFrame	OrigNumFrames
200.000000	200.000000	4	59	mm	200.000000	919	1038
Frame#	Times		LFHD		RFHD		RCAR		RWRU		LACR1		RACR1		RUA1		RTH2		LLFC		RFA1		LMT5		RASI		LTH3		LUA1		LElbow		LMT1		LTB4		RTH4		LToe		RBHD		RLFC		LTB3		LTH4		LTH2		STRN		CLAV		LASI		RTH3		LTH1		LWRU		C7		LFA1		RBack		RMT1		RTH1		LBHD		RMT5		RCAL		LPSI		LCAR		RToe		RTB2		RLMAL		RPSI		RTB3		LWRR		RTB4		RTB1		LTB1		LLMAL		RMMAL		RElbow		RWRR		RElbowM		T10		LTB2		LMMAL		LCAL		LElbowM
			X1	Y1	Z1	X2	Y2	Z2	X3	Y3	Z3	X4	Y4	Z4	X5	Y5	Z5	X6	Y6	Z6	X7	Y7	Z7	X8	Y8	Z8	X9	Y9	Z9	X10	Y10	Z10	X11	Y11	Z11	X12	Y12	Z12	X13	Y13	Z13	X14	Y14	Z14	X15	Y15	Z15	X16	Y16	Z16	X17	Y17	Z17	X18	Y18	Z18	X19	Y19	Z19	X20	Y20	Z20	X21	Y21	Z21	X22	Y22	Z22	X23	Y23	Z23	X24	Y24	Z24	X25	Y25	Z25	X26	Y26	Z26	X27	Y27	Z27	X28	Y28	Z28	X29	Y29	Z29	X30	Y30	Z30	X31	Y31	Z31	X32	Y32	Z32	X33	Y33	Z33	X34	Y34	Z34	X35	Y35	Z35	X36	Y36	Z36	X37	Y37	Z37	X38	Y38	Z38	X39	Y39	Z39	X40	Y40	Z40	X41	Y41	Z41	X42	Y42	Z42	X43	Y43	Z43	X44	Y44	Z44	X45	Y45	Z45	X46	Y46	Z46	X47	Y47	Z47	X48	Y48	Z48	X49	Y49	Z49	X50	Y50	Z50	X51	Y51	Z51	X52	Y52	Z52	X53	Y53	Z53	X54	Y54	Z54	X55	Y55	Z55	X56	Y56	Z56	X57	Y57	Z57	X58	Y58	Z58	X59	Y59	Z59

919	4.595	448.23	1579.2	0.54917	447.75	1579.8	98.593	437.62	813	374.37	382.19	849.74	388.59	328.05	1369.8	-142.21	328.89	1368.2	215.21	307.71	1224.7	305.98	325.94	623.2	195.28	391.07	497.09	-170.28	368.88	956.37	361.54	574.51	60.638	-183.94	383.48	949.02	201.21	394.47	567.65	-183.6	294.59	1229	-224.82	219.37	1096.9	-262.39	602.41	80.056	-104.39	475.54	270.5	-93.656	268.67	631.37	210.17	635.6	95.555	-113.7	278.06	1562.2	105.53	244.84	454.54	177.79	487.69	186.11	-103.12	372.81	649.98	-207.78	427.01	668.24	-187.88	459.11	1217.8	42.422	398.63	1335.9	39.394	384.59	970	-156.27	254.49	547.09	191.92	354.32	730.84	-229.31	184.97	864.5	-342.72	239.34	1416.7	53.327	240.87	969.1	-307.95	186.13	1309.5	146.88	273.46	34.561	70.681	293.64	709.5	228.93	298.44	1552	-28.021	263.31	26.983	163.37	85.886	32.775	114.12	150.17	989.61	-81.336	209.01	809.46	-351.18	320.57	30.494	78.386	231.67	264.81	160.15	144.33	69.069	155.49	136.06	986.3	51.714	215.23	176.06	101.67	241.53	845.4	-297.02	240.44	257.37	98.578	277.55	335.69	94.962	470.64	355.36	-82.155	455.54	82.019	-163.22	160.78	74.428	69.712	274.54	1063.1	351.11	418.99	863.93	325.84	236.67	1040.1	269.6	171.51	1089.6	14.364	463.76	277.2	-153.88	476.44	89.248	-81.617	419.14	27.106	-114.11	219.08	1053.1	-161.92
920	4.6	452.79	1578.5	-0.52024	452.33	1579.1	97.526	442.53	813.3	374.48	386.97	849.88	388.47	332.22	1369.1	-143.17	333.31	1367.9	214.24	312.71	1224.5	304.98	329.45	622.61	195.05	395.38	496.14	-169.76	373.64	956.52	361.26	586.42	62.183	-182.71	387.58	948.65	200.94	397.03	565.91	-183.98	298.24	1228.4	-225.67	222.53	1096.5	-262.85	613.64	82.146	-103.02	483.54	271.07	-92.575	272.23	630.98	209.78	646.73	98.02	-112.01	282.65	1561.7	104.51	247.75	454.19	177.52	497.12	186.83	-102.26	375.84	648.4	-208.14	430.17	666.36	-188.23	463.73	1217.5	42.182	403.08	1335.4	38.557	389.53	969.17	-156.53	257.79	546.75	191.59	357.77	729.39	-229.51	185.52	864.56	-343.15	243.73	1416.1	52.394	242.68	968.62	-308.61	190.61	1309	146	273.5	34.573	70.71	297.44	709.03	228.52	302.98	1551.5	-29.059	263.29	26.986	163.38	85.93	33.225	114.05	155.03	988.89	-82.431	208.88	809.22	-351.7	320.64	30.464	78.477	233.17	264.53	160.09	144.51	69.349	155.45	140.45	985.75	50.569	216.17	175.87	101.7	242.16	844.89	-297.78	242.07	256.96	98.469	279.76	335.02	94.881	477	355.9	-80.799	466.97	82.256	-162.76	160.98	74.617	69.652	279.34	1063.2	350.67	423.95	864.15	325.87	241.21	1040.1	269.34	176.05	1088.9	13.548	472.23	277.74	-152.86	487.15	89.855	-80.942	431.02	26.692	-113.85	222.4	1052.7	-162.26
921	4.605	457.34	1577.9	-1.6309	456.9	1578.4	96.418	447.35	813.56	374.54	391.67	850	388.31	336.39	1368.4	-144.17	337.7	1367.7	213.22	317.65	1224.3	303.95	333.04	622.01	194.79	400.01	495.24	-169.27	378.33	956.66	360.95	597.54	63.507	-181.38	391.71	948.27	200.6	399.74	564.19	-184.41	301.89	1227.8	-226.55	225.7	1096.1	-263.34	624.08	83.949	-101.58	491.24	271.54	-91.482	275.85	630.58	209.39	657.13	100.11	-110.25	287.21	1561.1	103.43	250.68	453.84	177.23	506.04	187.44	-101.32	378.96	646.83	-208.58	433.4	664.52	-188.61	468.35	1217.2	41.926	407.52	1334.9	37.675	394.52	968.31	-156.82	261.14	546.41	191.26	361.25	727.94	-229.77	186.19	864.57	-343.59	248.1	1415.5	51.405	244.57	968.1	-309.28	195.07	1308.4	145.05	273.55	34.586	70.737	301.31	708.55	228.09	307.5	1550.9	-30.146	263.27	26.991	163.39	85.98	33.705	113.97	159.92	988.15	-83.548	208.88	808.95	-352.21	320.71	30.436	78.566	234.69	264.26	160.02	144.69	69.65	155.41	144.87	985.19	49.398	217.11	175.69	101.73	242.89	844.34	-298.53	243.71	256.56	98.351	281.98	334.35	94.786	483.28	356.33	-79.508	477.67	82.487	-162.18	161.19	74.823	69.588	284.1	1063.2	350.18	428.83	864.34	325.86	245.69	1040	269.04	180.6	1088.2	12.703	480.41	278.19	-151.83	497.18	90.409	-80.15	442.08	26.366	-113.44	225.76	1052.3	-162.63
922	4.61	461.88	1577.2	-2.7823	461.45	1577.7	95.27	452.09	813.78	374.56	396.3	850.09	388.12	340.56	1367.7	-145.22	342.05	1367.4	212.16	322.54	1224.1	302.87	336.7	621.38	194.51	404.98	494.41	-168.82	382.95	956.77	360.58	607.85	64.566	-179.93	395.88	947.9	200.18	402.66	562.52	-184.87	305.54	1227.1	-227.47	228.91	1095.6	-263.87	633.74	85.426	-100.05	498.65	271.89	-90.381	279.54	630.16	208.98	666.78	101.79	-108.4	291.75	1560.5	102.31	253.66	453.48	176.94	514.46	187.92	-100.3	382.19	645.29	-209.08	436.72	662.78	-189.03	472.97	1216.8	41.643	411.93	1334.4	36.743	399.57	967.41	-157.12	264.55	546.05	190.92	364.76	726.48	-230.11	186.98	864.53	-344.04	252.45	1414.8	50.359	246.54	967.54	-309.97	199.5	1307.8	144.04	273.59	34.602	70.762	305.27	708.07	227.66	312.01	1550.4	-31.282	263.24	26.999	163.39	86.038	34.217	113.9	164.83	987.37	-84.683	209.02	808.65	-352.71	320.77	30.409	78.653	236.22	264	159.94	144.87	69.972	155.38	149.33	984.61	48.207	218.06	175.52	101.76	243.72	843.76	-299.26	245.35	256.16	98.226	284.2	333.68	94.678	489.5	356.64	-78.291	487.62	82.669	-161.46	161.41	75.05	69.522	288.81	1063.3	349.64	433.63	864.5	325.81	250.12	1039.9	268.71	185.17	1087.4	11.83	488.27	278.52	-150.78	506.49	90.87	-79.242	452.3	26.096	-112.9	229.15	1051.7	-163.04
